<?xml version="1.0" standalone="no"?>
<!DOCTYPE svg PUBLIC "-//W3C//DTD SVG 20010904//EN"
 "http://www.w3.org/TR/2001/REC-SVG-20010904/DTD/svg10.dtd">
<svg version="1.0" xmlns="http://www.w3.org/2000/svg"
 width="700.000000pt" height="700.000000pt" viewBox="0 0 700.000000 700.000000"
 preserveAspectRatio="xMidYMid meet">
<metadata>
Created by potrace 1.14, written by Peter Selinger 2001-2017
</metadata>
<g transform="translate(0.000000,700.000000) scale(0.100000,-0.100000)"
fill="#000000" stroke="none">
<path d="M2477 6074 c-182 -33 -355 -151 -469 -319 -127 -188 -148 -482 -49
-700 167 -369 612 -528 986 -354 206 95 373 323 401 546 31 242 -31 439 -192
619 -74 82 -219 168 -339 199 -82 22 -242 26 -338 9z"/>
<path d="M4299 6086 c-2 -2 -24 -6 -49 -9 -224 -29 -443 -195 -538 -407 -50
-113 -63 -176 -63 -320 -1 -204 72 -375 221 -518 75 -73 179 -137 264 -164
163 -51 352 -48 506 9 119 44 266 160 341 270 121 176 156 442 85 651 -77 228
-266 404 -501 467 -54 15 -256 31 -266 21z"/>
<path d="M1329 4926 c-2 -2 -40 -6 -84 -9 -93 -8 -161 -25 -238 -60 -219 -100
-377 -306 -414 -540 -14 -86 -6 -240 16 -320 89 -326 381 -541 721 -531 52 2
104 5 115 7 94 23 130 35 193 66 129 62 242 171 316 301 17 30 31 57 32 60 0
3 4 12 7 20 4 8 16 49 26 90 16 59 19 100 16 195 -4 139 -5 148 -35 235 -54
159 -177 305 -330 393 -62 35 -188 75 -263 83 -34 4 -65 8 -68 10 -3 2 -8 2
-10 0z"/>
<path d="M5668 4925 c-1 -1 -30 -5 -63 -9 -75 -7 -86 -9 -162 -35 -218 -73
-403 -271 -457 -486 -24 -96 -27 -115 -26 -200 1 -245 92 -428 294 -594 70
-57 214 -115 325 -130 276 -36 518 62 690 278 72 92 114 187 138 316 12 67 6
240 -11 310 -72 295 -335 519 -636 542 -36 2 -70 6 -77 8 -6 2 -13 2 -15 0z"/>
<path d="M3395 4042 c-108 -11 -277 -73 -394 -143 -104 -62 -232 -175 -345
-304 -146 -166 -230 -282 -361 -500 -103 -170 -239 -355 -340 -461 -25 -26
-195 -211 -215 -234 -8 -10 -56 -62 -106 -116 -220 -240 -249 -272 -290 -330
-160 -224 -215 -515 -148 -789 77 -316 333 -564 629 -610 39 -6 311 -7 390 -1
114 9 213 17 235 21 14 2 48 7 75 10 90 10 179 23 205 30 8 2 44 7 80 11 36 3
68 8 72 10 4 3 35 7 70 10 35 3 74 7 88 9 181 31 742 25 1020 -11 89 -11 117
-15 235 -34 357 -56 752 -78 907 -50 65 12 174 51 218 79 110 68 245 206 292
298 13 24 29 56 37 70 65 123 96 331 76 512 -19 174 -105 368 -228 511 -30 35
-184 204 -222 244 -11 12 -63 69 -115 126 -52 57 -104 114 -115 125 -188 197
-279 319 -524 707 -146 233 -335 460 -476 574 -154 124 -324 203 -495 230 -48
7 -205 11 -255 6z"/>
</g>
</svg>
